<mxfile host="app.diagrams.net">
  <diagram name="添加自选股业务流程" id="business-flow-add-stock">
    <mxGraphModel dx="1000" dy="1000" grid="1" gridSize="10" guides="1" tooltips="1" connect="1" arrows="1" fold="1" page="1" pageScale="1" pageWidth="827" pageHeight="1169" math="0" shadow="0">
      <root>
        <mxCell id="0" />
        <mxCell id="1" parent="0" />
        <!-- 用户 -->
        <mxCell id="user" value="用户" style="ellipse;whiteSpace=wrap;html=1;fillColor=#fff2cc;strokeColor=#d6b656;" vertex="1" parent="1">
          <mxGeometry x="60" y="120" width="60" height="60" as="geometry" />
        </mxCell>
        <!-- 前端 -->
        <mxCell id="frontend" value="前端 (Wails/JS)" style="rounded=1;whiteSpace=wrap;html=1;fillColor=#dae8fc;strokeColor=#6c8ebf;" vertex="1" parent="1">
          <mxGeometry x="180" y="120" width="120" height="60" as="geometry" />
        </mxCell>
        <!-- Wails 框架 -->
        <mxCell id="wails" value="Wails 框架" style="rounded=1;whiteSpace=wrap;html=1;fillColor=#e1d5e7;strokeColor=#9673a6;" vertex="1" parent="1">
          <mxGeometry x="340" y="120" width="100" height="60" as="geometry" />
        </mxCell>
        <!-- 后端 -->
        <mxCell id="backend" value="后端 (Go)" style="rounded=1;whiteSpace=wrap;html=1;fillColor=#d5e8d4;strokeColor=#82b366;" vertex="1" parent="1">
          <mxGeometry x="480" y="120" width="120" height="60" as="geometry" />
        </mxCell>
        <!-- 数据存储 -->
        <mxCell id="storage" value="数据存储 (DB/文件)" style="rounded=1;whiteSpace=wrap;html=1;fillColor=#f8cecc;strokeColor=#b85450;" vertex="1" parent="1">
          <mxGeometry x="640" y="120" width="120" height="60" as="geometry" />
        </mxCell>
        <!-- 连接线 -->
        <mxCell id="u2f" style="edgeStyle=orthogonalEdgeStyle;endArrow=block;html=1;strokeColor=#d6b656;" edge="1" parent="1" source="user" target="frontend">
          <mxGeometry relative="1" as="geometry" />
        </mxCell>
        <mxCell id="f2w" style="edgeStyle=orthogonalEdgeStyle;endArrow=block;html=1;strokeColor=#6c8ebf;" edge="1" parent="1" source="frontend" target="wails">
          <mxGeometry relative="1" as="geometry" />
        </mxCell>
        <mxCell id="w2b" style="edgeStyle=orthogonalEdgeStyle;endArrow=block;html=1;strokeColor=#9673a6;" edge="1" parent="1" source="wails" target="backend">
          <mxGeometry relative="1" as="geometry" />
        </mxCell>
        <mxCell id="b2s" style="edgeStyle=orthogonalEdgeStyle;endArrow=block;html=1;strokeColor=#82b366;" edge="1" parent="1" source="backend" target="storage">
          <mxGeometry relative="1" as="geometry" />
        </mxCell>
        <mxCell id="s2b" style="edgeStyle=orthogonalEdgeStyle;endArrow=block;html=1;strokeColor=#b85450;dashed=1;" edge="1" parent="1" source="storage" target="backend">
          <mxGeometry relative="1" as="geometry" />
        </mxCell>
        <mxCell id="b2w" style="edgeStyle=orthogonalEdgeStyle;endArrow=block;html=1;strokeColor=#82b366;dashed=1;" edge="1" parent="1" source="backend" target="wails">
          <mxGeometry relative="1" as="geometry" />
        </mxCell>
        <mxCell id="w2f" style="edgeStyle=orthogonalEdgeStyle;endArrow=block;html=1;strokeColor=#9673a6;dashed=1;" edge="1" parent="1" source="wails" target="frontend">
          <mxGeometry relative="1" as="geometry" />
        </mxCell>
        <mxCell id="f2u" style="edgeStyle=orthogonalEdgeStyle;endArrow=block;html=1;strokeColor=#6c8ebf;dashed=1;" edge="1" parent="1" source="frontend" target="user">
          <mxGeometry relative="1" as="geometry" />
        </mxCell>
      </root>
    </mxGraphModel>
  </diagram>
</mxfile> 